<svg width="309"
      height="120" viewBox="0 0 309 120" fill="none" xmlns="http://www.w3.org/2000/svg">
  <g clip-path="url(#a)">
    <rect width="309" height="120" rx="16" fill="#F2F2F2" />
    <rect x="21.2344" y="24.4092" width="139.201" height="18" rx="8" fill="#C7C7C7" />
    <g clip-path="url(#b)">
      <path d="M28.0789 33.9301c.2877 0 .5209-.2332.5209-.5208 0-.2877-.2332-.5209-.5209-.5209-.2876 0-.5208.2332-.5208.5209 0 .2876.2332.5208.5208.5208Z"
            fill="#fff" />
      <path d="m28.0269 31.8989-1.1459.625s-.1041.5433-.1041.8854c0 .3771.1041.9375.1041.9375l1.1459.573 1.3541-.4167v-2.1354l-1.3541-.4688Zm.1312 1.9724c-.3208.0526-.5943-.2208-.5417-.5416.0318-.1943.1886-.3511.3829-.3829.3208-.0526.5942.2209.5416.5417-.0318.1943-.1885.3511-.3828.3828Z"
            fill="#185ABC" />
      <path d="M31.3602 30.6488c.2876 0 .5208-.2331.5208-.5208 0-.2876-.2332-.5208-.5208-.5208-.2877 0-.5208.2332-.5208.5208 0 .2877.2331.5208.5208.5208Z"
            fill="#fff" />
      <path d="m32.8707 30.0759-.625-1.1458s-.5432-.1042-.8854-.1042c-.3771 0-.9375.1042-.9375.1042l-.5729 1.1458.4166 1.3542h2.1354l.4688-1.3542Zm-1.9724.1313c-.0526-.3209.2208-.5943.5417-.5417.1942.0318.351.1886.3828.3828.0526.3209-.2209.5943-.5417.5417-.1943-.0318-.351-.1886-.3828-.3828Z"
            fill="#185ABC" />
      <path d="M34.6414 33.9301c.2877 0 .5209-.2332.5209-.5208 0-.2877-.2332-.5209-.5209-.5209-.2876 0-.5208.2332-.5208.5209 0 .2876.2332.5208.5208.5208Z"
            fill="#fff" />
      <path d="m34.6935 34.9198 1.1459-.625s.1041-.5433.1041-.8855c0-.377-.1041-.9375-.1041-.9375l-1.1459-.5729-1.3541.4167v2.1354l1.3541.4688Zm-.1312-1.9724c.3208-.0526.5942.2208.5416.5416-.0317.1943-.1885.3511-.3828.3828-.3208.0526-.5942-.2208-.5416-.5416.0317-.1943.1885-.3511.3828-.3828Z"
            fill="#185ABC" />
      <path d="M31.3602 37.2113c.2876 0 .5208-.2331.5208-.5208 0-.2876-.2332-.5208-.5208-.5208-.2877 0-.5208.2332-.5208.5208 0 .2877.2331.5208.5208.5208Z"
            fill="#fff" />
      <path d="m29.8499 36.7426.625 1.1458s.5432.1042.8854.1042c.3771 0 .9375-.1042.9375-.1042l.5729-1.1458-.4167-1.3542h-2.1354l-.4687 1.3542Zm1.9723-.1313c.0527.3209-.2208.5943-.5416.5417-.1943-.0318-.3511-.1885-.3828-.3828-.0526-.3208.2208-.5943.5416-.5417.1943.0318.3511.1886.3828.3828Z"
            fill="#185ABC" />
      <path d="M28.0789 32.1072c.7193 0 1.3021.5828 1.3021 1.3021 0-1.0933.886-1.9792 1.9792-1.9792-.7193 0-1.3021-.5828-1.3021-1.3021s.5828-1.3021 1.3021-1.3021c-2.5313 0-4.5833 2.0521-4.5833 4.5834 0-.7193.5828-1.3021 1.302-1.3021Zm6.5625 2.6041c-.7192 0-1.302-.5828-1.302-1.302 0 1.0932-.886 1.9791-1.9792 1.9791.7193 0 1.3021.5828 1.3021 1.3021s-.5828 1.3021-1.3021 1.3021c2.5312 0 4.5833-2.0521 4.5833-4.5833 0 .7192-.5828 1.302-1.3021 1.302Z"
            fill="#1967D2" />
      <path d="M30.0581 36.6905c0-.7193.5828-1.3021 1.3021-1.3021-1.0932 0-1.9792-.8859-1.9792-1.9791 0 .7192-.5828 1.302-1.3021 1.302-.7192 0-1.302-.5828-1.302-1.302 0 2.5312 2.052 4.5833 4.5833 4.5833-.7193 0-1.3021-.5828-1.3021-1.3021Zm1.3021-7.8646c.7193 0 1.3021.5828 1.3021 1.3021s-.5828 1.3021-1.3021 1.3021c1.0932 0 1.9792.8859 1.9792 1.9792 0-.7193.5828-1.3021 1.302-1.3021.7193 0 1.3021.5828 1.3021 1.3021 0-2.5313-2.0521-4.5834-4.5833-4.5834Z"
            fill="#4285F4" />
    </g>
    <rect opacity=".8" x="39.4355" y="30.9092" width="113" height="5" rx="2.5" fill="#8F8F8F" />
    <g filter="url(#c)">
      <g clip-path="url(#d)">
        <rect x="29" y="42" width="251.022" height="168.102" rx="7.02159" fill="#fff" />
        <g opacity=".4" filter="url(#e)">
          <rect x="29" y="42" width="251.022" height="168.102" rx="6.03056" fill="#fff" />
        </g>
        <g clip-path="url(#f)">
          <path d="M40.7501 57.8334c.4602 0 .8333-.3731.8333-.8333 0-.4603-.3731-.8334-.8333-.8334-.4603 0-.8334.3731-.8334.8334 0 .4602.3731.8333.8334.8333Z"
                fill="#fff" />
          <path d="m40.6667 54.5835-1.8333 1s-.1667.8692-.1667 1.4167c0 .6033.1667 1.5.1667 1.5l1.8333.9166 2.1667-.6666v-3.4167l-2.1667-.75Zm.21 3.1558c-.5133.0842-.9508-.3533-.8666-.8666.0508-.3109.3016-.5617.6125-.6125.5133-.0842.9508.3533.8666.8666-.0508.3109-.3016.5617-.6125.6125Z"
                fill="#185ABC" />
          <path d="M46.0001 52.5834c.4602 0 .8333-.3731.8333-.8333 0-.4603-.3731-.8334-.8333-.8334-.4603 0-.8334.3731-.8334.8334 0 .4602.3731.8333.8334.8333Z"
                fill="#fff" />
          <path d="m48.4168 51.6667-1-1.8333s-.8691-.1667-1.4166-.1667c-.6034 0-1.5.1667-1.5.1667l-.9167 1.8333.6667 2.1667h3.4166l.75-2.1667Zm-3.1558.21c-.0842-.5133.3533-.9508.8667-.8666.3108.0508.5616.3016.6125.6125.0841.5133-.3534.9508-.8667.8666-.3108-.0508-.5617-.3016-.6125-.6125Z"
                fill="#185ABC" />
          <path d="M51.2501 57.8334c.4602 0 .8333-.3731.8333-.8333 0-.4603-.3731-.8334-.8333-.8334-.4603 0-.8334.3731-.8334.8334 0 .4602.3731.8333.8334.8333Z"
                fill="#fff" />
          <path d="m51.3334 59.4168 1.8333-1s.1667-.8691.1667-1.4166c0-.6034-.1667-1.5-.1667-1.5l-1.8333-.9167-2.1667.6667v3.4166l2.1667.75Zm-.21-3.1558c.5133-.0842.9508.3533.8667.8667-.0509.3108-.3017.5616-.6125.6125-.5134.0841-.9509-.3534-.8667-.8667.0508-.3108.3017-.5617.6125-.6125Z"
                fill="#185ABC" />
          <path d="M46.0001 63.0834c.4602 0 .8333-.3731.8333-.8333 0-.4603-.3731-.8334-.8333-.8334-.4603 0-.8334.3731-.8334.8334 0 .4602.3731.8333.8334.8333Z"
                fill="#fff" />
          <path d="m43.5835 62.3334 1 1.8333s.8692.1667 1.4167.1667c.6033 0 1.5-.1667 1.5-.1667l.9166-1.8333-.6666-2.1667h-3.4167l-.75 2.1667Zm3.1558-.21c.0842.5133-.3533.9508-.8666.8667-.3109-.0509-.5617-.3017-.6125-.6125-.0842-.5134.3533-.9509.8666-.8667.3109.0508.5617.3017.6125.6125Z"
                fill="#185ABC" />
          <path d="M40.7501 54.9167c1.1508 0 2.0833.9325 2.0833 2.0834 0-1.7492 1.4175-3.1667 3.1667-3.1667-1.1509 0-2.0834-.9325-2.0834-2.0833 0-1.1509.9325-2.0834 2.0834-2.0834-4.05 0-7.3334 3.2834-7.3334 7.3334 0-1.1509.9325-2.0834 2.0834-2.0834Zm10.5 4.1667c-1.1509 0-2.0834-.9325-2.0834-2.0833 0 1.7491-1.4175 3.1666-3.1666 3.1666 1.1508 0 2.0833.9325 2.0833 2.0834 0 1.1508-.9325 2.0833-2.0833 2.0833 4.05 0 7.3333-3.2833 7.3333-7.3333 0 1.1508-.9325 2.0833-2.0833 2.0833Z"
                fill="#1967D2" />
          <path d="M43.9167 62.2501c0-1.1509.9325-2.0834 2.0834-2.0834-1.7492 0-3.1667-1.4175-3.1667-3.1666 0 1.1508-.9325 2.0833-2.0833 2.0833-1.1509 0-2.0834-.9325-2.0834-2.0833 0 4.05 3.2834 7.3333 7.3334 7.3333-1.1509 0-2.0834-.9325-2.0834-2.0833Zm2.0834-12.5834c1.1508 0 2.0833.9325 2.0833 2.0834 0 1.1508-.9325 2.0833-2.0833 2.0833 1.7491 0 3.1666 1.4175 3.1666 3.1667 0-1.1509.9325-2.0834 2.0834-2.0834 1.1508 0 2.0833.9325 2.0833 2.0834 0-4.05-3.2833-7.3334-7.3333-7.3334Z"
                fill="#4285F4" />
        </g>
        <path stroke="#DADCE0" stroke-width=".75382" d="M29 72.6231h251.022" />
        <rect x="38" y="99" width="232.872" height="72.1026" rx="3.89744" fill="#E8EAED" />
        <rect x="38.0469" y="81" width="61.0594" height="9.79966" rx="4.89983" fill="#E8EAED" />
        <rect x="58.9336" y="52" width="169" height="10" rx="5" fill="#ABABAB" />
        <rect x="105" y="81" width="45.7949" height="9.74359" rx="4.8718" fill="#E8EAED" />
        <rect x="156.641" y="81" width="78.9231" height="9.74359" rx="4.8718" fill="#E8EAED" />
        <circle cx="265" cy="57" r="6" fill="#E8EAED" />
      </g>
    </g>
    <path transform="matrix(-1 0 0 1 360 119)"
          fill="url(#g)" d="M0 0h360v45H0z" style="mix-blend-mode:multiply" opacity=".4" />
  </g>
  <defs>
    <clipPath id="a">
      <rect width="309" height="120" rx="16" fill="#fff" />
    </clipPath>
    <clipPath id="b">
      <path fill="#fff" d="M26.3601 28.4092h10v10h-10z" />
    </clipPath>
    <clipPath id="d">
      <rect x="29" y="42" width="251.022" height="168.102" rx="7.02159" fill="#fff" />
    </clipPath>
    <clipPath id="f">
      <path fill="#fff" d="M38 49h16v16H38z" />
    </clipPath>
    <filter id="c"
            x="21"
            y="36"
            width="267.022"
            height="184.102"
            filterUnits="userSpaceOnUse"
            color-interpolation-filters="sRGB">
      <feFlood flood-opacity="0" result="BackgroundImageFix" />
      <feColorMatrix in="SourceAlpha"
                      type="matrix"
                      values="0 0 0 0 0 0 0 0 0 0 0 0 0 0 0 0 0 0 127 0"
                      result="hardAlpha" />
      <feMorphology radius="2"
                    operator="dilate" in="SourceAlpha" result="effect1_dropShadow_15127_247235" />
      <feOffset dy="2" />
      <feGaussianBlur stdDeviation="3" />
      <feColorMatrix type="matrix" values="0 0 0 0 0 0 0 0 0 0 0 0 0 0 0 0 0 0 0.15 0" />
      <feBlend mode="normal" in2="BackgroundImageFix" result="effect1_dropShadow_15127_247235" />
      <feColorMatrix in="SourceAlpha"
                      type="matrix"
                      values="0 0 0 0 0 0 0 0 0 0 0 0 0 0 0 0 0 0 127 0"
                      result="hardAlpha" />
      <feOffset dy="1" />
      <feGaussianBlur stdDeviation="1" />
      <feColorMatrix type="matrix" values="0 0 0 0 0 0 0 0 0 0 0 0 0 0 0 0 0 0 0.3 0" />
      <feBlend mode="normal"
                in2="effect1_dropShadow_15127_247235" result="effect2_dropShadow_15127_247235" />
      <feBlend mode="normal"
                in="SourceGraphic" in2="effect2_dropShadow_15127_247235" result="shape" />
    </filter>
    <filter id="e"
            x="22.9694"
            y="37.4771"
            width="263.083"
            height="180.163"
            filterUnits="userSpaceOnUse"
            color-interpolation-filters="sRGB">
      <feFlood flood-opacity="0" result="BackgroundImageFix" />
      <feColorMatrix in="SourceAlpha"
                      type="matrix"
                      values="0 0 0 0 0 0 0 0 0 0 0 0 0 0 0 0 0 0 127 0"
                      result="hardAlpha" />
      <feMorphology radius="1.50764"
                    operator="dilate" in="SourceAlpha" result="effect1_dropShadow_15127_247235" />
      <feOffset dy="1.50764" />
      <feGaussianBlur stdDeviation="2.26146" />
      <feColorMatrix type="matrix"
                      values="0 0 0 0 0.235294 0 0 0 0 0.25098 0 0 0 0 0.262745 0 0 0 0.15 0" />
      <feBlend mode="normal" in2="BackgroundImageFix" result="effect1_dropShadow_15127_247235" />
      <feColorMatrix in="SourceAlpha"
                      type="matrix"
                      values="0 0 0 0 0 0 0 0 0 0 0 0 0 0 0 0 0 0 127 0"
                      result="hardAlpha" />
      <feOffset dy=".75382" />
      <feGaussianBlur stdDeviation=".75382" />
      <feColorMatrix type="matrix"
                      values="0 0 0 0 0.235294 0 0 0 0 0.25098 0 0 0 0 0.262745 0 0 0 0.3 0" />
      <feBlend mode="normal"
                in2="effect1_dropShadow_15127_247235" result="effect2_dropShadow_15127_247235" />
      <feBlend mode="normal"
                in="SourceGraphic" in2="effect2_dropShadow_15127_247235" result="shape" />
    </filter>
    <linearGradient id="g"
                    x1="137.349" y1="45" x2="137.349" y2="0" gradientUnits="userSpaceOnUse">
      <stop stop-color="#D9D9D9" />
      <stop offset="1" stop-color="#DADCE0" stop-opacity="0" />
    </linearGradient>
  </defs>
</svg>